<svg width="32" height="32" viewBox="0 0 32 32" fill="none" xmlns="http://www.w3.org/2000/svg">
  <!-- Background circle -->
  <circle cx="16" cy="16" r="16" fill="#2563eb"/>
  
  <!-- Dollar sign -->
  <path d="M16 8C12.686 8 10 10.686 10 14C10 17.314 12.686 20 16 20C19.314 20 22 17.314 22 14C22 10.686 19.314 8 16 8ZM16 18C13.791 18 12 16.209 12 14C12 11.791 13.791 10 16 10C18.209 10 20 11.791 20 14C20 16.209 18.209 18 16 18Z" fill="white"/>
  <path d="M15 12H17V16H15V12ZM15 16H17V18H15V16Z" fill="white"/>
  
  <!-- Small circles representing coins/money -->
  <circle cx="12" cy="12" r="1.5" fill="white" opacity="0.8"/>
  <circle cx="20" cy="12" r="1.5" fill="white" opacity="0.8"/>
  <circle cx="12" cy="20" r="1.5" fill="white" opacity="0.8"/>
  <circle cx="20" cy="20" r="1.5" fill="white" opacity="0.8"/>
</svg> 